<svg class="nueww-logo" xmlns="http://www.w3.org/2000/svg" viewBox="0 0 1024 554.645" role="img" aria-labelledby="nueww-2018-logo"><title id="nueww-2018-logo"><f:translate key="nueww.2018.logo"/></title><path d="M943.478 104.713c0 12.52-7.795 23.144-21.02 23.144-9.212 0-17.715-4.96-23.86-11.57 8.034-18.894 12.992-31.65 26.22-31.65 12.515 0 18.66 8.504 18.66 20.076m-107.47.237c0 9.21 5.672 16.767 17.242 16.767 12.283 0 18.188-10.39 24.092-25.743-6.847-5.906-14.173-9.212-21.963-9.212-11.58 0-19.38 6.85-19.38 18.188m53.14 209.958c-41.1 0-50.31 8.977-50.31 20.786 0 11.575 9.21 20.786 50.31 20.786 40.86 0 51.49-9.21 51.49-20.786 0-11.81-10.63-20.786-51.49-20.786M1024 554.645H754.15V.52H1024v554.125zM964.734 398.99h-29.29v30.233c0 7.086.948 17.48 1.89 25.035-25.508-24.327-52.43-47.946-77.704-47.946-28.816 0-47.713 20.078-47.713 49.602 0 21.485 8.034 35.425 23.858 50.302l18.657-18.896c-8.03-7.556-15.35-15.824-15.35-26.682 0-12.992 8.028-21.256 22.67-21.256 21.26 0 47.004 26.917 83.142 65.184h19.84V398.99zm2.833-63.296c0-32.122-27.395-53.612-78.413-53.612-51.02 0-77.236 21.49-77.236 53.612s26.217 53.616 77.236 53.616c51.018 0 78.413-21.494 78.413-53.616m-30.94-102.027v32.596h28.106V170.84h-28.107v28.108h-121.87v25.507c6.373 10.628 10.626 21.022 13.698 37.32h21.49v-28.108h86.682zm30.94-128.245c0-31.886-17.95-53.144-41.568-53.144-19.84 0-31.42 11.574-39.21 25.98h-.94c-6.85-10.39-18.43-19.6-32.84-19.6-24.8 0-41.1 18.185-41.1 45.58 0 27.87 15.83 47.946 41.33 47.946 15.82 0 26.69-8.503 35.43-20.076h.942c7.555 14.17 18.656 25.51 36.844 25.51 24.326 0 41.094-22.204 41.094-52.196M161.19 262.225L127.33 145.31h-27.06L66.407 262.226 37.757 145.31H0l49.487 185.404h30.2l34.095-112.485 34.132 112.48h30.205l49.73-185.41H190.1l-28.907 116.92zm381.727 15.102c0 34.642-23.69 53.387-56.78 53.387H408.55V145.31h74.478c36.2 0 57.29 20.304 57.29 52.077 0 20.566-13.546 33.85-22.94 38.275 11.216 5.22 25.54 16.938 25.54 41.665m-98.164-57.024h35.387c15.4 0 23.99-8.59 23.99-21.357 0-12.753-8.59-21.338-23.98-21.338h-35.38v42.695zm61.963 55.208c0-12.49-7.814-22.65-24.21-22.65h-37.75v45.57h37.75c16.4 0 24.21-10.42 24.21-22.91M408.56 554.65h122.11v-32.293h-85.912V477.31h73.174v-32.292h-73.174V401.54h85.913v-32.294H408.56v185.4zm-157.53 0h122.116v-32.293H287.23V477.31h73.148v-32.292H287.23V401.54h85.914v-32.294H251.027v185.4zM383.802 55.482L348.38.745h-15.554V90.12h17.434V35.255l35.42 54.867h15.553V.746H383.8v54.738zM504.68 90.12h58.882V74.57h-41.417V52.84h35.264V37.282h-35.27V16.316h41.41V.746h-58.88V90.12zm187.96-35.14h16.426v3.384c0 4.898-1.394 8.917-4.015 11.93-3.14 3.385-7.29 5.026-12.41 5.026-4.8 0-8.56-1.513-11.18-4.64-3.53-4.148-4.27-7.66-4.27-25.247 0-17.69 1-20.965 4.28-25.1 2.76-3.14 6.51-4.777 11.18-4.777 8.66 0 13.94 4.39 16.05 13.065h17.597C723.877 13.05 712.957 0 692.64 0c-9.562 0-17.6 3.256-24.112 9.79-3.89 3.882-6.286 8.278-7.29 13.43-1.006 5.025-1.493 12.425-1.493 22.21 0 9.792.487 17.214 1.494 22.236 1 5.022 3.39 9.528 7.28 13.433 6.51 6.52 14.55 9.78 24.11 9.78 10.01 0 18.31-3.14 25.24-10.18 6.13-6.53 8.52-14.18 8.52-27.24V40.41h-33.77v14.564zm-94.534 35.14H580.64V.746h35.033c18.208 0 29 12.426 29 27.367 0 12.56-7.68 20.34-16.33 23.48l19.964 38.53h-20.22l-17.44-35.65h-12.54v35.65zm0-50.212h16.432c7.646 0 12.67-4.893 12.67-11.796s-5.023-11.796-12.67-11.796h-16.433v23.592zm113.558 329.338h-44.01l-65.367 80.727v-80.727H566.09v185.398h36.197V498.92l23.945-28.65 47.644 84.374h42.193l-65.89-111.708 61.48-73.69zm-92.978-19.268h31.76l74.21-223.93h-31.76l-74.21 223.93zM122.41 90.885c18.334 0 32.89-12.426 32.89-31.387V.745h-17.306v58.123c0 10.288-6.157 16.45-15.585 16.45-9.4 0-15.43-6.162-15.43-16.45V.745H89.51v58.753c0 18.96 14.582 31.387 32.9 31.387M19.09 35.255L54.476 90.12H70.07V.746H52.6v54.738L17.21.744H1.622V90.12H19.09V35.255zM459.506 90.12h-37.434V.746h35.907c17.47 0 27.61 9.786 27.61 25.118 0 9.915-6.52 16.317-11.02 18.442 5.38 2.506 12.28 8.162 12.28 20.087 0 16.707-11.41 25.73-27.35 25.73m-19.96-53.228h17.07c7.38 0 11.53-4.13 11.53-10.292 0-6.154-4.15-10.288-11.536-10.288h-17.08v20.58zm18.18 37.672c7.94 0 11.69-5.02 11.69-11.05 0-6.025-3.76-10.922-11.7-10.922h-18.18v21.972h18.18zm-84.59 103.04V145.31H251.02v185.404h122.11v-32.288h-85.907v-45.05h73.143V221.08h-73.14v-43.472h85.91zM268.17 90.12h-17.465V.746h35.033c18.21 0 29.004 12.426 29.004 27.367 0 12.56-7.648 20.34-16.34 23.48l19.97 38.53h-20.19l-17.466-35.65H268.17v35.65zm0-50.212h16.432c7.685 0 12.706-4.893 12.706-11.796s-5.02-11.796-12.706-11.796h-16.43v23.592zm-93.4 50.213h58.855V74.57H192.21V52.84h35.29V37.282h-35.29V16.316h41.415V.746H174.77V90.12zm-13.575 396.05L127.33 369.25h-27.06L66.407 486.17l-28.65-116.924H0l49.487 185.398H79.69l34.092-112.485 34.132 112.48h30.195l49.74-185.4H190.1l-28.904 116.93z"/></svg>